# xmcd
#
# Track frame offsets: 
#        150
#        3112
#        27023
#        48945
#        72514
#        94089
#        114157
#        130715
#        155936
#        180780
#
# Disc length: 2862 seconds
#
# Revision: 0
# Processed by: cddbd v1.5.2PL0 Copyright (c) Steve Scherf et al.
# Submitted via: ExactAudioCopy v1.3
#
DISCID=6f0b2c0a
DTITLE=Various Artist - Crossroads Guitar Festival 2010
DYEAR=2010
DGENRE=Blues
TTITLE0=Sonny Landreth - Introduction
TTITLE1=Sonny Landreth - The Promised Land (with Eric Clapton)
TTITLE2=Robert Cray - Chicken in the Kitchen
TTITLE3=Doyle Bramhall II - Gypsy Blood
TTITLE4=Doyle Bramhall II - In My Time of Dying
TTITLE5=Gary Clark, Jr. - I Don't Owe You a Thing
TTITLE6=Gary Clark, Jr. - Bright Lights, Big City
TTITLE7=Sheryl Crow - Every Day is a Winding Road
TTITLE8=Sheryl Crow - Long Road Home (with Derek Trucks and Susan Tedesc
TTITLE8=hi)
TTITLE9=Sheryl Crow - Our Love is Fading
EXTD=
EXTT0=
EXTT1=
EXTT2=
EXTT3=
EXTT4=
EXTT5=
EXTT6=
EXTT7=
EXTT8=
EXTT9=
PLAYORDER=
